<svg width="24" height="24" viewBox="0 0 24 24" fill="none" xmlns="http://www.w3.org/2000/svg">
<path fill-rule="evenodd" clip-rule="evenodd" d="M0 12C0 5.374 5.374 0 12 0C18.629 0 24 5.374 24 12C24 18.626 18.626 24 12 24C5.374 24 0 18.626 0 12ZM5.97007 12.3218L5.91907 12.4028H5.92107C5.91078 12.4189 5.90504 12.4376 5.90448 12.4567C5.90392 12.4758 5.90855 12.4948 5.91788 12.5115C5.92721 12.5282 5.9409 12.5421 5.95748 12.5516C5.97407 12.5612 5.99293 12.5661 6.01207 12.5658H9.21907C9.23663 12.5663 9.25404 12.5625 9.26975 12.5547C9.28546 12.5468 9.29897 12.5352 9.30907 12.5208C9.35124 12.4564 9.39028 12.39 9.42607 12.3218C9.70507 11.8558 9.95207 11.3518 10.0401 10.9798C10.2521 10.0748 9.80007 8.62081 9.28007 7.45181C9.27212 7.43437 9.25963 7.4194 9.24391 7.40844C9.22819 7.39748 9.20982 7.39095 9.19071 7.38951C9.1716 7.38808 9.15246 7.39181 9.13529 7.40031C9.11811 7.4088 9.10353 7.42175 9.09307 7.43781L5.97007 12.3218ZM19.8157 14.1431C19.8273 14.1251 19.8333 14.1042 19.8331 14.0828V13.3098C19.833 13.2931 19.829 13.2767 19.8214 13.2618C19.8139 13.2469 19.803 13.234 19.7897 13.224C19.7763 13.214 19.7608 13.2073 19.7444 13.2043C19.728 13.2013 19.7111 13.2022 19.6951 13.2068L16.0451 14.2638C16.0256 14.2683 16.0081 14.2788 15.9951 14.2938C15.5986 14.7309 15.2637 15.0222 15.1818 15.0935L15.1791 15.0958C14.9511 15.2898 14.6701 15.3938 14.3751 15.3938H13.0531V14.0478H14.1041C14.1311 14.0477 14.157 14.037 14.1761 14.0178L14.3131 13.8958C14.3711 13.8408 14.4371 13.7778 14.5211 13.6938C14.5311 13.6838 14.5415 13.6735 14.5522 13.663C14.5923 13.6233 14.636 13.5802 14.6771 13.5328C14.7331 13.4808 14.7851 13.4208 14.8331 13.3628C14.9181 13.2748 14.9971 13.1828 15.0781 13.0848C15.1381 13.0198 15.191 12.9478 15.244 12.8759L15.2441 12.8758C15.3044 12.8042 15.3621 12.7305 15.4171 12.6548C15.4372 12.6246 15.4597 12.5935 15.4827 12.5615C15.503 12.5333 15.5239 12.5044 15.5441 12.4748C15.5529 12.4609 15.5618 12.447 15.5708 12.4329C15.6007 12.3863 15.6309 12.3389 15.6571 12.2928C15.7601 12.1338 15.8461 11.9608 15.9211 11.7908C15.9508 11.7252 15.975 11.6583 15.9989 11.5922C16.0056 11.5737 16.0123 11.5552 16.0191 11.5368C16.1171 11.2565 16.1532 10.9584 16.1251 10.6628C16.1201 10.5988 16.1151 10.5358 16.1011 10.4788V10.4688C16.096 10.4239 16.0863 10.3797 16.0721 10.3368C16.0291 10.1348 15.9591 9.93581 15.8701 9.73881C15.8411 9.66681 15.8081 9.59281 15.7741 9.52581C15.6951 9.37881 15.6131 9.23281 15.5171 9.09081C15.4995 9.06084 15.4788 9.03023 15.4582 8.99971C15.4423 8.97625 15.4264 8.95284 15.4121 8.92981C15.3371 8.81781 15.2561 8.70981 15.1771 8.60581C15.146 8.56512 15.1115 8.52414 15.0767 8.48273C15.0464 8.44679 15.0159 8.41051 14.9871 8.37381C14.9221 8.29381 14.8601 8.22181 14.7951 8.14781C14.5651 7.88881 14.3251 7.65581 14.1111 7.45681C13.926 7.2818 13.7345 7.11369 13.5371 6.95281C13.5132 6.93316 13.4906 6.91396 13.4691 6.89561C13.4347 6.86631 13.4028 6.83917 13.3721 6.81581C13.3091 6.76781 13.2591 6.72981 13.2251 6.70581C13.218 6.70033 13.2092 6.69608 13.2008 6.6921C13.1985 6.69099 13.1963 6.6899 13.1941 6.68881L13.0531 6.64981V5.48581C13.0526 5.30446 12.9808 5.13059 12.8531 5.00181C12.7913 4.93771 12.7172 4.88677 12.6352 4.85205C12.5532 4.81734 12.4651 4.79957 12.3761 4.79981C11.9991 4.79981 11.6971 5.10681 11.6971 5.48581V6.26881L11.6271 6.24981L11.4351 6.19581L11.2621 6.14581H11.2521L9.93207 5.78881C9.87407 5.77181 9.82607 5.83681 9.85507 5.88981L10.0661 6.27781C10.0772 6.30595 10.0918 6.33512 10.1068 6.36512C10.1174 6.38629 10.1281 6.40788 10.1381 6.42981C10.1742 6.49992 10.2085 6.57095 10.2411 6.64281C10.2704 6.70942 10.3017 6.77512 10.3351 6.83981C10.349 6.87128 10.3633 6.90319 10.3778 6.93559C10.4328 7.05866 10.4911 7.18891 10.5481 7.32981C10.5997 7.44636 10.6471 7.56478 10.6901 7.68481C10.8134 8.00391 10.9229 8.32821 11.0181 8.65681C11.0431 8.73568 11.0639 8.81184 11.085 8.88969C11.0926 8.91745 11.1002 8.94542 11.1081 8.97381L11.1221 9.03381C11.1605 9.18855 11.1932 9.34466 11.2201 9.50181C11.2409 9.60501 11.2569 9.70912 11.2681 9.81381C11.2692 9.82337 11.2704 9.83293 11.2715 9.84251C11.2845 9.95008 11.2975 10.0584 11.3021 10.1658C11.3121 10.2718 11.3161 10.3848 11.3161 10.4928C11.3161 10.7658 11.2921 11.0298 11.2351 11.2798C11.2153 11.3547 11.1936 11.429 11.1701 11.5028C11.152 11.5684 11.1282 11.6345 11.1035 11.7033C11.0954 11.7258 11.0872 11.7486 11.0791 11.7718C11.0707 11.7919 11.0628 11.8124 11.0549 11.8328C11.0419 11.8662 11.029 11.8996 11.0141 11.9318C10.8921 12.2258 10.7401 12.5178 10.5841 12.7918C10.3541 13.1978 10.1231 13.5528 9.96307 13.7838L9.90007 13.8738C9.88861 13.8902 9.88184 13.9094 9.88049 13.9294C9.87914 13.9494 9.88327 13.9693 9.89243 13.9871C9.90158 14.0049 9.91542 14.0199 9.93245 14.0304C9.94948 14.0409 9.96906 14.0466 9.98907 14.0468H11.6971V15.3938H9.97107C9.50807 15.3938 9.07807 15.1318 8.87207 14.7118C8.76407 14.5008 8.72107 14.2678 8.74707 14.0418C8.75207 13.9728 8.70207 13.9098 8.63207 13.9098H5.14707C5.08707 13.9098 5.03907 13.9578 5.03907 14.0158V14.0878C5.03789 14.6158 5.14077 15.1389 5.34184 15.6272C5.54291 16.1154 5.83822 16.5593 6.2109 16.9334C6.58359 17.3074 7.02633 17.6044 7.51383 17.8073C8.00133 18.0102 8.52404 18.115 9.05207 18.1158H15.3061C16.4787 18.1158 17.1441 17.0475 17.7982 15.9974C17.9808 15.7042 18.1625 15.4125 18.3541 15.1458C18.6981 14.6688 19.5251 14.2868 19.7681 14.1838C19.7876 14.1752 19.8042 14.161 19.8157 14.1431Z" fill="white"/>
</svg>
