<svg width="24" height="24" viewBox="0 0 24 24" fill="none" xmlns="http://www.w3.org/2000/svg">
<g clip-path="url(#clip0_0_105)">
<path fill-rule="evenodd" clip-rule="evenodd" d="M10.2985 0.153905C10.003 0.229357 9.31791 0.393163 8.77612 0.51808C8.23433 0.642817 7.15791 1.07115 6.384 1.46992C5.3794 1.9875 4.58113 2.59094 3.59301 3.57987C2.59881 4.57454 2.00597 5.36132 1.48854 6.37265C1.09236 7.14706 0.680955 8.14353 0.574209 8.58709C0.467642 9.03066 0.294806 9.7721 0.190209 10.2347C0.0856119 10.6972 0 11.4881 0 11.9923C0 12.4964 0.0856119 13.2873 0.190209 13.7499C0.294806 14.2124 0.467642 14.9539 0.574209 15.3974C0.680955 15.841 1.09236 16.8375 1.48854 17.6119C2.00597 18.6232 2.59881 19.41 3.59301 20.4047C4.58704 21.3995 5.37331 21.9927 6.384 22.5105C7.15791 22.9069 8.15373 23.3186 8.59702 23.4254C9.0403 23.5321 9.78125 23.705 10.2435 23.8097C10.7058 23.9143 11.4962 24 12 24C12.5038 24 13.2942 23.9143 13.7565 23.8097C14.2187 23.705 14.9597 23.5321 15.403 23.4254C15.8463 23.3186 16.8421 22.9069 17.616 22.5105C18.6267 21.9927 19.413 21.3995 20.407 20.4047C21.4012 19.41 21.994 18.6232 22.5115 17.6119C22.9076 16.8375 23.319 15.841 23.4258 15.3974C23.5324 14.9539 23.7052 14.2124 23.8098 13.7499C23.9144 13.2873 24 12.4964 24 11.9923C24 11.4881 23.9144 10.6972 23.8098 10.2347C23.7052 9.7721 23.5324 9.03066 23.4258 8.58709C23.319 8.14353 22.9076 7.14706 22.5115 6.37265C21.994 5.36132 21.4012 4.57454 20.407 3.57987C19.413 2.58502 18.6267 1.9918 17.616 1.47404C16.8421 1.0776 15.8463 0.665936 15.403 0.559121C14.9597 0.452485 14.2187 0.279538 13.7565 0.174874C13.2942 0.0702094 12.4479 -0.00810972 11.8759 0.00067205C11.3038 0.00963304 10.594 0.0786327 10.2985 0.153905ZM17.5945 8.36056C18.8518 9.61582 19.8806 10.7266 19.8806 10.829C19.8806 10.9315 18.1051 12.786 15.9351 14.9505L11.9898 18.8858L8.05648 14.9462C5.89325 12.7794 4.12245 10.927 4.12137 10.8299C4.1203 10.7327 5.14585 9.6237 6.40048 8.36558L8.68137 6.07802H11.995H15.3084L17.5945 8.36056ZM10.6567 7.7625C10.2627 7.88724 9.69851 8.11772 9.40298 8.27471C9.10746 8.43171 8.35791 9.07654 7.73749 9.7074L6.60931 10.8548L7.95099 12.1299C9.08776 13.2104 9.47481 13.4615 10.486 13.7741C11.1424 13.977 11.8238 14.1429 12 14.1429C12.1762 14.1429 12.8576 13.977 13.514 13.7741C14.5252 13.4615 14.9122 13.2104 16.0488 12.1301L17.3903 10.8551L16.3519 9.79306C15.7807 9.20881 15.0313 8.55071 14.6866 8.33027C14.3418 8.11001 13.6814 7.83563 13.2192 7.72075C12.7569 7.60587 12.1524 7.51715 11.8759 7.52378C11.5993 7.53041 11.0507 7.63777 10.6567 7.7625ZM13.4742 8.79589C13.75 8.99231 14.0952 9.38462 14.2415 9.66761C14.3878 9.95078 14.5075 10.4562 14.5075 10.791C14.5075 11.1257 14.3893 11.6367 14.2447 11.9267C14.1002 12.2167 13.7407 12.6323 13.4459 12.8504C13.0728 13.1264 12.6559 13.2468 12.0733 13.2468C11.5361 13.2468 11.0187 13.1122 10.6288 12.871C10.2946 12.6643 9.90215 12.2652 9.7569 11.9838C9.61146 11.7027 9.49254 11.1822 9.49254 10.8273C9.49254 10.4725 9.61218 9.95078 9.75851 9.66761C9.90484 9.38462 10.2473 8.99482 10.5197 8.80144C10.7921 8.60788 11.1761 8.40698 11.3731 8.35465C11.5701 8.30231 12.0107 8.2998 12.3521 8.34909C12.6937 8.39838 13.1986 8.59946 13.4742 8.79589ZM11.117 10.2662C10.9922 10.4995 10.9187 10.8395 10.9537 11.0216C10.9888 11.2037 11.2384 11.4765 11.5087 11.6277C11.9504 11.8749 12.0496 11.8749 12.4913 11.6277C12.7616 11.4765 13.0112 11.2037 13.0463 11.0216C13.0813 10.8395 13.0078 10.4995 12.883 10.2662C12.7076 9.93823 12.5067 9.84163 12 9.84163C11.4933 9.84163 11.2924 9.93823 11.117 10.2662Z" fill="white"/>
</g>
<defs>
<clipPath id="clip0_0_105">
<rect width="24" height="24" fill="white"/>
</clipPath>
</defs>
</svg>
