<svg width="22" height="22" viewBox="0 0 22 22" fill="none" xmlns="http://www.w3.org/2000/svg">
<path fill-rule="evenodd" clip-rule="evenodd" d="M11 22C17.0751 22 22 17.0751 22 11C22 4.92487 17.0751 0 11 0C4.92487 0 0 4.92487 0 11C0 17.0751 4.92487 22 11 22ZM5.58444 5.92949C6.51997 5.53715 7.27627 5.29829 8.26949 5.08148C8.51128 5.0287 8.62448 4.99683 8.70515 5.03454C8.7888 5.07365 8.83746 5.18758 8.95823 5.43064L9.16172 5.84014L9.31825 5.82249C9.40434 5.8128 9.61566 5.78831 9.78785 5.76808C10.1957 5.72019 11.8261 5.72043 12.2141 5.76844C12.3777 5.78868 12.5822 5.81378 12.6686 5.82418L12.8257 5.84309L12.9906 5.49363C13.0814 5.30142 13.1808 5.11171 13.2116 5.0721L13.2675 5L13.5469 5.051C14.3099 5.19027 15.3421 5.49738 16.134 5.82073L16.5633 5.99602L16.7948 6.3544C18.3645 8.78464 19.0787 11.2591 18.9931 13.9716C18.9809 14.3606 18.9615 14.7547 18.9501 14.8473L18.9293 15.0156L18.5223 15.2873C17.4983 15.9709 16.4551 16.4855 15.3021 16.8755C15.0979 16.9446 14.9147 17.0006 14.8951 17C14.7981 16.9968 13.9864 15.6745 14.0483 15.6206C14.064 15.6069 14.1895 15.5516 14.3273 15.4976C14.6762 15.361 15.3291 15.0246 15.3291 14.9814C15.3291 14.9618 15.2664 14.897 15.1899 14.8375C15.0523 14.7306 15.0494 14.7298 14.9394 14.7764C14.0795 15.1401 13.3485 15.3581 12.5428 15.4911C10.7939 15.7799 8.90394 15.5555 7.25244 14.8629L6.93979 14.7318L6.80376 14.8277C6.63659 14.9457 6.62284 14.9663 6.677 15.0179C6.73 15.0685 7.53123 15.4595 7.77642 15.5545C7.87544 15.5928 7.95643 15.6333 7.95643 15.6445C7.95643 15.7358 7.17656 16.9595 7.09995 16.9884C7.07876 16.9964 6.87501 16.9402 6.6472 16.8635C5.5399 16.4909 4.48124 15.9666 3.46398 15.2872L3.05699 15.0154L3.03051 14.8472C3.01592 14.7547 3.00236 14.2222 3.00033 13.664C2.99638 12.5737 3.02616 12.1911 3.1836 11.3094C3.48636 9.61362 4.15531 7.96164 5.18955 6.35573C5.40525 6.02078 5.42976 5.99436 5.58444 5.92949ZM9.72855 11.2091C9.61491 10.7357 9.31678 10.3515 8.90945 10.1538C8.71078 10.0573 8.64354 10.0407 8.40445 10.0296C8.17373 10.0189 8.09461 10.0285 7.92061 10.0885C7.55032 10.216 7.25795 10.4738 7.08029 10.8292C6.75408 11.4819 6.87617 12.2801 7.37745 12.772C8.14358 13.5238 9.32423 13.2029 9.6861 12.1445C9.77141 11.8949 9.79079 11.4683 9.72855 11.2091ZM15.0938 11.5866C15.0951 10.9546 14.7729 10.4166 14.2372 10.1565C14.0315 10.0566 13.9681 10.041 13.7265 10.0305C13.4076 10.0167 13.1913 10.0724 12.934 10.2346C12.4061 10.5674 12.1201 11.2829 12.2578 11.9262C12.5199 13.1513 13.8355 13.5997 14.6503 12.7418C14.9459 12.4306 15.0929 12.0477 15.0938 11.5866Z" fill="#FDDA60"/>
</svg>
